# vtk DataFile Version 2.0
academic_pulse, Created by Gmsh 4.11.1 
ASCII
DATASET UNSTRUCTURED_GRID
POINTS 50 double
-1 -1 0
1 -1 0
1 0 0
-1 0 0
-1 1 0
1 1 0
-0.6000000000011096 -1 0
-0.2000000000022192 -1 0
0.1999999999977808 -1 0
0.5999999999988903 -1 0
1 -0.6666666666675911 0
1 -0.3333333333347203 0
0.6000000000011096 0 0
0.2000000000022192 0 0
-0.1999999999977808 0 0
-0.5999999999988903 0 0
-1 -0.3333333333325025 0
-1 -0.6666666666657889 0
-1 0.3333333333325025 0
-1 0.6666666666657889 0
-0.6000000000011096 1 0
-0.2000000000022192 1 0
0.1999999999977808 1 0
0.5999999999988903 1 0
1 0.6666666666675911 0
1 0.3333333333347203 0
-0.712502951905666 -0.5043720144564455 0
0.7125029519059952 -0.5043720144574919 0
1.061539398050648e-12 -0.2736256709132229 0
-0.3753206314398198 -0.3321615214333868 0
0.3753206314429083 -0.3321615214326076 0
-0.4392400846609666 -0.7184687484100399 0
0.4392400846597234 -0.7184687484103858 0
-7.903240845210702e-13 -0.6475041921795897 0
0.7375647166700026 -0.2339733738449639 0
-0.7476169246147658 -0.7704736428702876 0
-0.7375647166688752 -0.233973373844467 0
0.7476169246149853 -0.7704736428720951 0
-0.712502951905666 0.5043720144564455 -0
0.7125029519059953 0.504372014457492 0
1.061517193590156e-12 0.2736256709132229 0
-0.3753206314398198 0.3321615214333868 -0
0.3753206314429082 0.3321615214326076 0
-0.4392400846609666 0.7184687484100399 -0
0.4392400846597234 0.7184687484103858 0
-7.90335413327444e-13 0.6475041921795897 -0
0.7375647166700027 0.233973373844964 0
-0.7476169246147658 0.7704736428702876 -0
-0.7375647166688752 0.233973373844467 -0
0.7476169246149855 0.7704736428720953 0

CELLS 76 304
3 32 30 33
3 29 31 33
3 30 28 33
3 28 29 33
3 13 14 28
3 14 15 29
3 12 13 30
3 28 14 29
3 13 28 30
3 16 17 26
3 10 11 27
3 15 3 36
3 9 1 37
3 0 6 35
3 2 12 34
3 8 32 33
3 31 7 33
3 8 9 32
3 6 7 31
3 29 26 31
3 27 30 32
3 29 15 36
3 12 30 34
3 7 8 33
3 26 29 36
3 30 27 34
3 11 2 34
3 17 0 35
3 3 16 36
3 1 10 37
3 27 32 37
3 31 26 35
3 6 31 35
3 32 9 37
3 27 11 34
3 16 26 36
3 26 17 35
3 10 27 37
3 44 42 45
3 41 43 45
3 42 40 45
3 40 41 45
3 13 14 40
3 14 15 41
3 12 13 42
3 40 14 41
3 13 40 42
3 18 19 38
3 24 25 39
3 15 3 48
3 23 5 49
3 4 20 47
3 2 12 46
3 22 44 45
3 43 21 45
3 22 23 44
3 20 21 43
3 41 38 43
3 39 42 44
3 41 15 48
3 12 42 46
3 21 22 45
3 38 41 48
3 42 39 46
3 25 2 46
3 19 4 47
3 3 18 48
3 5 24 49
3 39 44 49
3 43 38 47
3 20 43 47
3 44 23 49
3 39 25 46
3 18 38 48
3 38 19 47
3 24 39 49

CELL_TYPES 76
5
5
5
5
5
5
5
5
5
5
5
5
5
5
5
5
5
5
5
5
5
5
5
5
5
5
5
5
5
5
5
5
5
5
5
5
5
5
5
5
5
5
5
5
5
5
5
5
5
5
5
5
5
5
5
5
5
5
5
5
5
5
5
5
5
5
5
5
5
5
5
5
5
5
5
5

CELL_DATA 76
SCALARS CellEntityIds int 1
LOOKUP_TABLE default
1
1
1
1
1
1
1
1
1
1
1
1
1
1
1
1
1
1
1
1
1
1
1
1
1
1
1
1
1
1
1
1
1
1
1
1
1
1
2
2
2
2
2
2
2
2
2
2
2
2
2
2
2
2
2
2
2
2
2
2
2
2
2
2
2
2
2
2
2
2
2
2
2
2
2
2
