# vtk DataFile Version 2.0
academic_pulse, Created by Gmsh 4.11.1 
ASCII
DATASET UNSTRUCTURED_GRID
POINTS 568 double
-1 -1 0
1 -1 0
1 0 0
-1 0 0
-1 1 0
1 1 0
-0.9047619047621692 -1 0
-0.8095238095243386 -1 0
-0.7142857142865078 -1 0
-0.6190476190486771 -1 0
-0.5238095238108464 -1 0
-0.4285714285730157 -1 0
-0.333333333335185 -1 0
-0.2380952380973542 -1 0
-0.1428571428595236 -1 0
-0.04761904762169278 -1 0
0.04761904761640268 -1 0
0.1428571428547623 -1 0
0.2380952380931221 -1 0
0.3333333333314819 -1 0
0.4285714285698417 -1 0
0.5238095238082014 -1 0
0.6190476190465608 -1 0
0.7142857142849206 -1 0
0.8095238095232806 -1 0
0.9047619047616402 -1 0
1 -0.9090909090905307 0
1 -0.8181818181816922 0
1 -0.7272727272732322 0
1 -0.6363636363647721 0
1 -0.5454545454563124 0
1 -0.454545454547348 0
1 -0.3636363636378783 0
1 -0.2727272727284087 0
1 -0.1818181818189393 0
1 -0.09090909090946953 0
0.9047619047621692 0 0
0.8095238095243386 0 0
0.7142857142865078 0 0
0.6190476190486771 0 0
0.5238095238108464 0 0
0.4285714285730157 0 0
0.333333333335185 0 0
0.2380952380973542 0 0
0.1428571428595236 0 0
0.04761904762169278 0 0
-0.04761904761640268 0 0
-0.1428571428547623 0 0
-0.2380952380931221 0 0
-0.3333333333314819 0 0
-0.4285714285698417 0 0
-0.5238095238082014 0 0
-0.6190476190465608 0 0
-0.7142857142849206 0 0
-0.8095238095232806 0 0
-0.9047619047616402 0 0
-1 -0.09090909090891913 0
-1 -0.1818181818177921 0
-1 -0.2727272727266177 0
-1 -0.3636363636354433 0
-1 -0.4545454545442689 0
-1 -0.545454545453347 0
-1 -0.6363636363626777 0
-1 -0.7272727272720083 0
-1 -0.8181818181813387 0
-1 -0.9090909090906695 0
-1 0.09090909090891913 0
-1 0.1818181818177921 0
-1 0.2727272727266177 0
-1 0.3636363636354433 0
-1 0.4545454545442689 0
-1 0.545454545453347 0
-1 0.6363636363626777 0
-1 0.7272727272720083 0
-1 0.8181818181813387 0
-1 0.9090909090906695 0
-0.9047619047621692 1 0
-0.8095238095243386 1 0
-0.7142857142865078 1 0
-0.6190476190486771 1 0
-0.5238095238108464 1 0
-0.4285714285730157 1 0
-0.333333333335185 1 0
-0.2380952380973542 1 0
-0.1428571428595236 1 0
-0.04761904762169278 1 0
0.04761904761640268 1 0
0.1428571428547623 1 0
0.2380952380931221 1 0
0.3333333333314819 1 0
0.4285714285698417 1 0
0.5238095238082014 1 0
0.6190476190465608 1 0
0.7142857142849206 1 0
0.8095238095232806 1 0
0.9047619047616402 1 0
1 0.9090909090905307 0
1 0.8181818181816922 0
1 0.7272727272732322 0
1 0.6363636363647721 0
1 0.5454545454563124 0
1 0.454545454547348 0
1 0.3636363636378783 0
1 0.2727272727284087 0
1 0.1818181818189393 0
1 0.09090909090946953 0
0.9151462849511506 -0.500682740471161 0
-0.9172906954016925 -0.5022296202304001 0
-0.3810763179418005 -0.9174373844877921 0
0.377318142237306 -0.08738935020897816 0
-0.09558351105762011 -0.9178428799769833 0
0.09427962631829009 -0.0858867735956543 0
0.2844695314131534 -0.9171096124045688 0
-0.2877223672407244 -0.08988392672259049 0
0.5693713997542019 -0.9131180991785985 0
-0.5724094359759516 -0.08845971361546223 0
0.663490456175296 -0.08980418454909103 0
-0.6668898921483213 -0.9176701986915916 0
-0.09663259252556568 -0.08890832213385817 0
0.09384918876122961 -0.9181070218929006 0
0.9212704178374505 -0.3181818181831435 0
-0.9197662734831746 -0.6746025222909273 0
-0.9292246240932514 -0.3180213409491819 0
0.9275900805243542 -0.6864311470137527 0
0.7582984994907062 -0.9139274778790645 0
-0.7650267173900321 -0.08963195971564071 0
-0.853021134092829 -0.9200056113904199 0
0.8607895539699927 -0.07154420928725276 0
0.9303476966536692 -0.8616145176047676 0
-0.9211262406213383 -0.1391734359066492 0
-0.7612181983379768 -0.918247191015802 0
-0.7145592831423047 -0.8361407979846783 0
-0.6199557298767877 -0.8356330231485677 0
-0.6675463480986776 -0.7543180969466571 0
-0.5731102429410593 -0.7538365652939638 0
-0.620430638652508 -0.6723557417931232 0
-0.5261545084016696 -0.6720527088093824 0
-0.5736229433143557 -0.5903786051517496 0
-0.4792618548914385 -0.5902349095900955 0
-0.5267452163063072 -0.5086325150276461 0
-0.4322225147075265 -0.5082494823656054 0
-0.3846260953441892 -0.5897007892710797 0
-0.3375000319669169 -0.5078264948701778 0
-0.2898437687347171 -0.5894811256445267 0
-0.242645976324673 -0.5074746477432841 0
-0.1949295110092472 -0.5892225431064877 0
-0.1476754187544297 -0.5071313931256018 0
-0.09991565003491505 -0.5889778908417045 0
-0.05261930237444396 -0.5068163038562826 0
-0.004826349283568868 -0.5890412836181451 0
0.04231575149400697 -0.5066657542364179 0
0.09028976273227569 -0.5888406458184053 0
0.1376422777290369 -0.5062876931965605 0
0.1854740084789174 -0.5885480052811564 0
0.2330226533738576 -0.5061463082787936 0
0.2806415531452883 -0.5882560046744236 0
0.327940263346193 -0.5058194516624281 0
0.3756863982859501 -0.5878459883023222 0
0.4228363841668302 -0.505669001227929 0
0.4703909293333646 -0.5870423564598506 0
0.5174616901368483 -0.505275259286927 0
0.565137197574497 -0.5858739937778552 0
-0.3852055662952469 -0.4261601990230806 0
0.2805548031993561 -0.4240962456229268 0
0.4701664142682996 -0.423834719876354 0
0.5643926144430923 -0.4236780525520275 0
-0.1954737154109199 -0.4252229089269561 0
-0.005392739733730291 -0.424519227837084 0
-0.6209910686411473 -0.5088289501148608 0
-0.5742630651405964 -0.4272926489313181 0
0.5171516743166185 -0.3423027716137415 0
0.6111155504784874 -0.3422874067597311 0
0.4237877388500456 -0.6682999512285087 0
-0.2411659135753152 -0.6708658520805543 0
0.6582355622563978 -0.4231921334475737 0
-0.668177635713576 -0.4276812275103087 0
-0.6215937418232738 -0.34620723106803 0
0.2334582487896513 -0.6707416628211212 0
0.04297435907482678 -0.6713756400172759 0
0.7047042977580432 -0.3422916612622603 0
-0.7175529475662593 -0.510282161996282 0
-0.7152823624919542 -0.3465985444608294 0
0.5640816288853582 -0.2608428310739224 0
-0.6706583634246888 -0.2628791008487597 0
-0.5752092778582862 -0.2642435384913179 0
0.4697511529414974 -0.2589755887481905 0
-0.7199342575268504 -0.672424375353679 0
-0.4787300325553296 -0.7535597436319553 0
-0.7650861602602652 -0.2646016739014503 0
0.7536688360865648 -0.4228996528624248 0
0.7056677281404597 -0.5036321674584923 0
0.5172453599886984 -0.1766186103164818 0
0.7960258940774657 -0.3444204580670612 0
0.7514064517990839 -0.261768268663244 0
0.8048297288269395 -0.5028455555515188 0
0.7532896452476873 -0.58365852089495 0
0.8447351441983826 -0.5834067518533194 0
0.7944885164599561 -0.6611661010553251 0
0.7056847064039925 -0.6639246053527292 0
0.7522543305510274 -0.7441048039661882 0
0.6596750775955242 -0.7450834762450339 0
-0.8029600331979362 -0.3506093775741559 0
-0.623382464762868 -0.1778208007922609 0
-0.5275222289405441 -0.179731068372512 0
-0.4805367203001873 -0.2635673342683292 0
-0.4335985566187753 -0.1822593360603791 0
-0.3858570250024693 -0.2637030968435529 0
-0.3380948727883942 -0.1800900382309937 0
-0.2908567407354384 -0.2629434799058989 0
-0.2419502683748329 -0.1785530447266845 0
-0.1956452202306959 -0.2622920369591611 0
0.6118138146890205 -0.1783574698650258 0
-0.1486784357122752 -0.1807379850792285 0
-0.1008099038257363 -0.2622768136625333 0
-0.05166457636299846 -0.1779648750714027 0
-0.00540111900425314 -0.2615487062218635 0
0.8485524453488906 -0.4225535515309791 0
0.04168125321479426 -0.1798517063033167 0
0.08960050430785274 -0.2616907639697315 0
0.1381833686672081 -0.1777129080777314 0
0.1850575234890479 -0.2610558993047128 0
0.2327405012820195 -0.178857416416834 0
0.280094111824111 -0.2609164740214642 0
0.1374746399613058 -0.3433344091172229 0
0.3275057820488925 -0.1769906030973608 0
0.7075120794675095 -0.8264775663571902 0
-0.3835518917676307 -0.09224848583050374 0
0.7976937088714317 -0.8272832277977351 0
0.5670127864695571 -0.09034288153463402 0
0.7101518704311118 -0.1714254325268229 0
0.2826005115049315 -0.09023909784216916 0
0.6136208778088972 -0.8268614691430757 0
0.5663188427465576 -0.7462443131221794 0
0.5201756130460714 -0.8297837859520991 0
0.4743199001025502 -0.9151518946359576 0
0.4258042847145379 -0.8319087375137848 0
0.856146391893236 -0.2703914169304647 0
-0.6692076888821691 -0.09062124058885682 0
-0.7190171162146576 -0.1792445303392098 0
-0.8273092210386346 -0.178584044300177 0
0.7625043047476567 -0.08345685737426718 0
0.8249773133190565 -0.1668769842880747 0
0.9070686185489043 -0.1924008956641542 0
0.6636893649754659 -0.9133974354263215 0
-0.8084665446780746 -0.8367876176824931 0
-0.9113577482311475 -0.8477785374334186 0
-0.8559512664980866 -0.7553418437316812 0
-0.7610880008527175 -0.4288402908974285 0
-0.8166337703284855 -0.5086784584252937 0
-0.8506936846170678 -0.4273417650469412 0
-0.8692082231723447 -0.5880799326285561 0
-0.7732128038647751 -0.5914803463734739 0
-0.6709574432609826 -0.5909583634638613 0
-0.1920332026117532 -0.09101280282758226 0
-0.001049004195204177 -0.09109150530685788 0
-0.572058299544043 -0.91758151875163 0
-0.4769058061602169 -0.9170807058870152 0
-0.7670173370360269 -0.7531662155011279 0
-0.4294411968378277 -0.8351561927650761 0
-0.3337661060267626 -0.8352658131069385 0
-0.3823960707469571 -0.7531117382040575 0
0.4221381555926137 -0.1685611437411853 0
0.6117398513386971 -0.5043126869804475 0
0.3752796131809032 -0.4236603546901285 0
0.3285854697292484 -0.6698492613786811 0
0.2816234800734215 -0.7522301440910477 0
0.1862078149409744 -0.752940217280878 0
0.235308294749352 -0.8346661619699123 0
0.1381992865162954 -0.671017818435512 0
0.09085596441915048 -0.7533101071622085 0
-0.0043884256421092 -0.7539374580261897 0
0.04488861701587743 -0.8357163259362557 0
0.3751122497346338 -0.2583377328400387 0
-0.4799236203197114 -0.4268520827472068 0
-0.2858280248521424 -0.9175333525887042 0
-0.2384723035808847 -0.8352711664797317 0
-0.1905198622092284 -0.9174514758023847 0
-0.1431422923890355 -0.8350972128958343 0
-0.1919178582550581 -0.7528663987548492 0
0.6588789356735174 -0.2594955116918344 0
-0.05180813288507572 -0.6710290114415423 0
0.8475901189511865 -0.7363003820696106 0
-0.1004398969085988 -0.4248852859836081 0
-0.2904003586966977 -0.4257765993225843 0
-0.921023429448139 -0.2269735309595436 0
0.4228708445590614 -0.3419735793979831 0
-0.4313752423894514 -0.6714879054673816 0
-0.5250335513192106 -0.8354746249130347 0
0.659544315480888 -0.5842245153598093 0
-0.527449337260787 -0.3455858312611209 0
0.3794782841257853 -0.9161273292185032 0
0.3772704540930747 -0.7503179809417628 0
0.3279511439940316 -0.3420944712756932 0
-0.4330048738684481 -0.3452314603298147 0
-0.3381081623279847 -0.3448250334667165 0
0.1888801534738488 -0.9173723488458836 0
0.08967661208693799 -0.4247464870596428 0
0.2328484092083588 -0.3425020773774274 0
-0.2431210150368254 -0.3441913097802816 0
0.185523144806425 -0.4245133852742525 0
0.3306590548615541 -0.8337266610232632 0
-0.1482418928192158 -0.3440878001003723 0
0.1399983388934054 -0.8353520305146731 0
0.04196929065960887 -0.3433647938428823 0
0.6128516357691217 -0.6652349792260251 0
-0.05305271027198758 -0.3434471046080572 0
-0.0007776494885698272 -0.918244191888854 0
-0.4782438442801574 -0.09044976731314285 0
-0.3361305279892413 -0.6714017801326138 0
-0.2873081300290365 -0.7531304581264574 0
-0.1464955855952968 -0.6706677711798424 0
0.5180580815278027 -0.6665052245340022 0
-0.04940967480528685 -0.8356364315807712 0
-0.09786032826197702 -0.7532057139798383 0
0.472344794516834 -0.7483241117772346 0
0.1876929239998242 -0.09147256161000114 0
0.4726825661120062 -0.08715199763354654 0
0.8577137893441606 -0.9074110675671775 0
-0.8577314122930633 -0.07900343462602785 0
-0.8226953970279119 -0.670078355121147 0
0.9269650976671768 -0.7727272727274628 0
0.9269857747893232 -0.5955399652932685 0
-0.8516291069065831 -0.2801558470386331 0
-0.9313460084690424 -0.4076229197756926 0
0.9279086368343397 -0.4043565838341543 0
0.9267740018434107 -0.1171518095703167 0
-0.9349924056538697 -0.7645034712920197 0
-0.9433132671666773 -0.5909090909080122 0
-0.9295964825166441 -0.9306760099255739 0
0.9369734978729998 -0.9352271948394004 0
-0.9329955471758815 -0.06576306519306173 0
0.8708144268639358 -0.8164427562271138 0
0.866463360423244 -0.3540123148942336 0
0.9360224324167967 -0.252823966039099 0
0.8649388196530062 -0.6488748024665638 0
-0.8731578614897341 -0.3617405331943991 0
0.9451204883882262 -0.0530607458281525 0
0.9151462849511465 0.5006827404711622 0
-0.9172906954016925 0.5022296202304 -0
0.3773181422373367 0.08738935020896224 0
-0.3810763179418005 0.9174373844877921 -0
0.09427962631829746 0.08588677359565058 0
-0.09558351105762186 0.917842879976984 -0
0.2844695314131457 0.9171096124045777 0
-0.2877223672407242 0.08988392672259024 -0
0.5693713997541967 0.9131180991786048 0
-0.5724094359759515 0.08845971361546215 -0
0.6634904561752895 0.08980418454909656 0
-0.6668898921483213 0.9176701986915916 -0
0.09384918876122375 0.9181070218928968 0
-0.09663259252556369 0.08890832213385734 -0
0.9212704178374505 0.3181818181831435 0
-0.9197662734831745 0.6746025222909273 -0
-0.9292246240932511 0.3180213409491818 -0
0.9275900805243475 0.6864311470137552 0
0.7582984994907013 0.913927477879068 0
-0.765026717390032 0.08963195971564061 -0
-0.853021134092829 0.9200056113904199 -0
0.8607895539699926 0.07154420928726093 0
0.9303476966536663 0.8616145176047684 0
-0.9211262406213383 0.1391734359066491 -0
-0.7612181983379768 0.918247191015802 -0
-0.7145592831423047 0.8361407979846783 -0
-0.6199557298767877 0.8356330231485677 -0
-0.6675463480986774 0.7543180969466571 -0
-0.5731102429410594 0.7538365652939638 -0
-0.6204306386525079 0.6723557417931232 -0
-0.5261545084016697 0.6720527088093827 -0
-0.5736229433143558 0.59037860515175 -0
-0.4792618548914387 0.5902349095900963 -0
-0.526745216306307 0.5086325150276467 -0
-0.432222514707526 0.5082494823656065 -0
-0.3846260953441893 0.5897007892710807 -0
-0.3375000319669178 0.5078264948701796 -0
-0.2898437687347195 0.5894811256445266 -0
-0.2426459763246777 0.5074746477432863 -0
-0.1949295110092539 0.5892225431064881 -0
-0.1476754187544387 0.5071313931256043 -0
-0.09991565003492549 0.588977890841706 -0
-0.05261930237445578 0.5068163038562846 -0
-0.004826349283581489 0.5890412836181455 -0
0.04231575149399538 0.5066657542364179 0
0.09028976273226187 0.5888406458184058 0
0.1376422777290231 0.506287693196562 0
0.1854740084789024 0.5885480052811577 0
0.2330226533738471 0.506146308278798 0
0.280641553145273 0.5882560046744261 0
0.3279402633461788 0.5058194516624315 0
0.3756863982859344 0.5878459883023254 0
0.4228363841668151 0.5056690012279328 0
0.4703909293333486 0.5870423564598548 0
0.517461690136833 0.5052752592869315 0
0.5651371975744812 0.5858739937778601 0
-0.385205566295246 0.4261601990230817 -0
0.2805548031993769 0.4240962456229223 0
0.4701664142682847 0.4238347198763582 0
0.5643926144430773 0.4236780525520323 0
-0.195473715410927 0.4252229089269606 -0
-0.005392739733743407 0.4245192278370859 -0
-0.6209910686411471 0.5088289501148611 -0
-0.574263065140596 0.4272926489313184 -0
0.517151674316604 0.3423027716137461 0
0.6111155504784727 0.3422874067597359 0
0.4237877388500289 0.6682999512285144 0
-0.2411659135753144 0.6708658520805596 -0
0.6582355622563829 0.4231921334475789 0
-0.6681776357135757 0.4276812275103088 -0
-0.6215937418232734 0.3462072310680302 -0
0.2334582487896352 0.6707416628211227 0
0.04297435907481346 0.6713756400172738 0
0.7047042977580287 0.3422916612622654 0
-0.7175529475662592 0.5102821619962816 -0
-0.7152823624919541 0.3465985444608295 -0
0.5640816288853439 0.2608428310739273 0
-0.6706583634246887 0.2628791008487598 -0
-0.5752092778582858 0.2642435384913179 -0
0.4697511529414987 0.2589755887481776 0
-0.7199342575268501 0.672424375353679 -0
-0.47873003255533 0.7535597436319551 -0
-0.7650861602602649 0.2646016739014503 -0
0.7536688360865507 0.4228996528624301 0
0.7056677281404451 0.5036321674584977 0
0.5172453599886904 0.1766186103164788 0
0.7960258940774533 0.3444204580670657 0
0.75140645179907 0.2617682686632495 0
0.8048297288269273 0.5028455555515234 0
0.7532896452476728 0.5836585208949551 0
0.8447351441983676 0.5834067518533247 0
0.794488516459942 0.6611661010553311 0
0.7056847064039777 0.6639246053527347 0
0.7522543305510125 0.7441048039661938 0
0.6596750775955091 0.7450834762450393 0
-0.8029600331979362 0.3506093775741556 -0
-0.6233824647628677 0.1778208007922608 -0
-0.5275222289405439 0.1797310683725118 -0
-0.4805367203001867 0.2635673342683291 -0
-0.4335985566187749 0.1822593360603788 -0
-0.3858570250024686 0.2637030968435529 -0
-0.3380948727883937 0.1800900382309934 -0
-0.2908567407354383 0.2629434799058993 -0
-0.2419502683748317 0.1785530447266839 -0
-0.1956452202306955 0.2622920369591622 -0
0.6118138146890071 0.1783574698650305 0
-0.1486784357122712 0.1807379850792257 -0
-0.1008099038257341 0.2622768136625351 -0
-0.05166457636298875 0.1779648750714016 -0
-0.005401119004244803 0.2615487062218667 -0
0.848552445348881 0.4225535515309825 0
0.04168125321482317 0.1798517063033058 0
0.0896005043078842 0.2616907639697332 0
0.1381833686672481 0.1777129080777208 0
0.185057523489105 0.2610558993047074 0
0.2327405012820813 0.1788574164168194 0
0.2800941118241808 0.2609164740214531 0
0.1374746399613393 0.3433344091172272 0
0.3275057820489573 0.1769906030973417 0
0.7075120794674963 0.8264775663571958 0
-0.3835518917676305 0.0922484858305035 -0
0.7976937088714219 0.8272832277977394 0
0.5670127864695491 0.09034288153463582 0
0.7101518704311011 0.1714254325268318 0
0.2826005115049647 0.09023909784215445 0
0.6136208778088835 0.8268614691430816 0
0.566318842746542 0.7462443131221854 0
0.5201756130460602 0.8297837859521089 0
0.4743199001025452 0.9151518946359682 0
0.4258042847145246 0.8319087375137999 0
0.8561463918932345 0.2703914169304725 0
-0.669207688882169 0.09062124058885677 -0
-0.7190171162146572 0.1792445303392097 -0
-0.8273092210386345 0.178584044300177 -0
0.7625043047476556 0.083456857374272 0
0.8249773133190532 0.1668769842880857 0
0.9070686185489091 0.1924008956641797 0
0.6636893649754598 0.913397435426325 0
-0.8084665446780746 0.8367876176824931 -0
-0.9113577482311475 0.8477785374334186 -0
-0.8559512664980866 0.7553418437316812 -0
-0.7610880008527174 0.4288402908974281 -0
-0.8166337703284854 0.508678458425293 -0
-0.8506936846170681 0.4273417650469409 -0
-0.8692082231723444 0.588079932628556 -0
-0.7732128038647748 0.5914803463734735 -0
-0.6709574432609824 0.5909583634638614 -0
-0.1920332026117523 0.09101280282758151 -0
-0.001049004195200084 0.09109150530685783 -0
-0.5720582995440431 0.91758151875163 -0
-0.4769058061602169 0.9170807058870152 -0
-0.7670173370360267 0.7531662155011279 -0
-0.4294411968378278 0.8351561927650764 -0
-0.3337661060267623 0.8352658131069386 -0
-0.3823960707469568 0.753111738204058 -0
0.4221381555926476 0.1685611437411246 0
0.6117398513386819 0.5043126869804524 0
0.3752796131808943 0.4236603546901305 0
0.3285854697292321 0.6698492613786857 0
0.2816234800734028 0.7522301440910547 0
0.1862078149409567 0.7529402172808772 0
0.2353082947493368 0.8346661619699184 0
0.1381992865162801 0.6710178184355116 0
0.09085596441913536 0.7533101071622028 0
-0.004388425642118443 0.7539374580261837 -0
0.04488861701586781 0.8357163259362489 0
0.3751122497346734 0.2583377328400173 0
-0.4799236203197105 0.4268520827472074 -0
-0.2858280248521433 0.9175333525887037 -0
-0.2384723035808817 0.8352711664797392 -0
-0.1905198622092324 0.917451475802382 -0
-0.1431422923890343 0.8350972128958505 -0
-0.1919178582550521 0.7528663987548593 -0
0.6588789356735038 0.25949551169184 0
-0.05180813288508399 0.6710290114415407 -0
0.8475901189511763 0.7363003820696148 0
-0.1004398969086104 0.4248852859836145 -0
-0.2904003586966993 0.4257765993225879 -0
-0.9210234294481388 0.2269735309595436 -0
0.4228708445590617 0.3419735793979807 0
-0.4313752423894512 0.6714879054673824 -0
-0.5250335513192108 0.8354746249130347 -0
0.6595443154808731 0.5842245153598145 0
-0.5274493372607865 0.3455858312611211 -0
0.3794782841257764 0.9161273292185128 0
0.3772704540930564 0.750317980941773 0
0.3279511439941009 0.3420944712756689 0
-0.4330048738684472 0.3452314603298149 -0
-0.338108162327984 0.3448250334667166 -0
0.1888801534738407 0.9173723488458843 0
0.08967661208693589 0.4247464870596455 0
0.2328484092084204 0.3425020773774097 0
-0.2431210150368279 0.344191309780284 -0
0.1855231448064386 0.424513385274256 0
0.3306590548615405 0.8337266610232726 0
-0.1482418928192233 0.3440878001003776 -0
0.1399983388933935 0.8353520305146712 0
0.04196929065959435 0.3433647938428947 0
0.6128516357691061 0.6652349792260304 0
-0.05305271027199361 0.3434471046080624 -0
-0.0007776494885726945 0.91824419188885 -0
-0.4782438442801574 0.09044976731314269 -0
-0.336130527989241 0.6714017801326149 -0
-0.2873081300290347 0.7531304581264616 -0
-0.146495585595301 0.6706677711798449 -0
0.5180580815277861 0.6665052245340075 0
-0.04940967480528968 0.8356364315807696 -0
-0.09786032826197989 0.7532057139798414 -0
0.4723447945168179 0.7483241117772425 0
0.1876929239998531 0.0914725616099849 0
0.4726825661120143 0.08715199763353357 0
0.8577137893441568 0.9074110675671794 0
-0.8577314122930633 0.07900343462602782 -0
-0.8226953970279116 0.6700783551211469 -0
0.9269650976671696 0.7727272727274627 0
0.9269857747893163 0.59553996529327 0
-0.851629106906583 0.2801558470386329 -0
-0.9313460084690423 0.4076229197756925 -0
0.9279086368343352 0.4043565838341549 0
0.92677400184341 0.1171518095703337 0
-0.9349924056538697 0.7645034712920197 -0
-0.9433132671666768 0.5909090909080122 -0
-0.9295964825166441 0.9306760099255739 -0
0.9369734978729989 0.9352271948394006 0
-0.9329955471758815 0.06576306519306173 -0
0.8708144268639266 0.8164427562271173 0
0.8664633604232375 0.3540123148942346 0
0.9360224324168039 0.2528239660391115 0
0.8649388196529965 0.6488748024665706 0
-0.8731578614897342 0.3617405331943987 -0
0.9451204883882153 0.05306074582816393 0

CELLS 1048 4192
3 106 194 196
3 257 186 319
3 194 106 216
3 239 125 318
3 64 65 245
3 129 239 318
3 238 125 239
3 229 193 241
3 186 251 319
3 245 65 328
3 239 129 284
3 241 242 325
3 248 107 250
3 180 251 252
3 50 51 307
3 127 241 325
3 115 202 203
3 49 50 226
3 246 257 319
3 107 248 249
3 226 50 307
3 113 207 209
3 193 236 241
3 183 202 238
3 118 212 214
3 43 44 315
3 52 53 237
3 39 40 228
3 116 211 229
3 111 217 219
3 113 49 226
3 116 39 228
3 211 116 228
3 188 183 238
3 207 113 226
3 251 186 252
3 42 43 230
3 202 115 237
3 230 43 315
3 109 42 230
3 106 196 321
3 224 109 230
3 189 194 216
3 192 189 216
3 47 48 253
3 212 118 253
3 180 248 251
3 261 191 316
3 225 124 227
3 113 209 253
3 227 124 317
3 45 46 254
3 217 111 254
3 118 214 254
3 185 261 272
3 53 125 237
3 109 224 261
3 115 52 237
3 227 317 331
3 51 115 307
3 240 229 241
3 193 229 279
3 124 225 243
3 37 38 240
3 114 231 233
3 250 121 319
3 115 203 307
3 229 211 279
3 114 233 234
3 202 237 238
3 121 250 327
3 231 114 243
3 188 238 239
3 191 228 316
3 118 47 253
3 48 113 253
3 44 111 315
3 111 45 254
3 46 118 254
3 127 37 240
3 185 191 261
3 22 23 243
3 38 116 240
3 261 224 272
3 228 40 316
3 111 219 315
3 248 250 251
3 239 284 322
3 225 231 243
3 20 21 234
3 209 212 253
3 214 217 254
3 21 114 234
3 116 229 240
3 241 236 242
3 23 124 243
3 114 22 243
3 291 235 314
3 109 261 316
3 20 234 290
3 133 186 257
3 187 258 260
3 234 233 235
3 237 125 238
3 247 201 249
3 187 260 286
3 295 267 302
3 121 246 319
3 19 20 290
3 256 258 287
3 317 128 331
3 127 240 241
3 267 112 300
3 160 161 262
3 186 135 252
3 181 201 247
3 119 295 302
3 126 130 244
3 126 244 245
3 258 187 287
3 296 152 299
3 235 233 314
3 126 7 130
3 262 161 288
3 131 133 257
3 130 131 244
3 112 290 300
3 135 137 252
3 245 244 246
3 275 278 309
3 11 108 256
3 175 181 247
3 255 10 256
3 181 188 201
3 256 108 258
3 165 160 262
3 6 7 126
3 36 37 127
3 110 306 312
3 180 247 248
3 130 117 131
3 248 247 249
3 180 175 247
3 168 175 180
3 9 10 255
3 244 131 257
3 179 174 189
3 8 117 130
3 179 189 192
3 10 11 256
3 158 159 160
3 160 159 161
3 23 24 124
3 53 54 125
3 133 135 186
3 171 174 179
3 278 173 309
3 189 190 194
3 171 165 174
3 175 176 181
3 168 169 175
3 194 195 196
3 7 8 130
3 158 157 159
3 164 160 165
3 137 168 252
3 266 268 269
3 137 139 168
3 38 39 116
3 8 9 117
3 131 132 133
3 21 22 114
3 51 52 115
3 156 157 158
3 189 174 190
3 199 227 281
3 158 164 263
3 181 183 188
3 173 308 309
3 112 267 295
3 264 177 265
3 112 19 290
3 194 190 195
3 158 160 164
3 156 158 263
3 155 177 264
3 131 117 132
3 170 165 171
3 255 256 287
3 275 277 278
3 211 182 279
3 168 180 252
3 117 9 255
3 168 139 169
3 258 259 260
3 193 192 236
3 258 108 259
3 197 199 281
3 133 134 135
3 159 157 172
3 266 177 268
3 175 169 176
3 275 276 277
3 156 155 157
3 154 155 156
3 174 165 262
3 164 165 170
3 14 110 276
3 13 14 276
3 223 296 299
3 154 153 155
3 276 110 277
3 221 220 222
3 163 156 263
3 259 274 275
3 221 222 224
3 199 225 227
3 196 195 197
3 149 147 280
3 152 153 154
3 151 178 268
3 274 13 276
3 220 218 223
3 178 149 280
3 268 178 269
3 155 153 177
3 108 12 274
3 219 218 220
3 153 151 268
3 12 13 274
3 259 108 274
3 217 215 218
3 46 47 118
3 16 17 119
3 18 19 112
3 48 49 113
3 44 45 111
3 14 15 110
3 11 12 108
3 41 42 109
3 154 156 163
3 290 235 300
3 219 220 221
3 152 151 153
3 217 218 219
3 275 274 276
3 269 178 270
3 133 132 134
3 224 222 272
3 270 178 280
3 214 213 215
3 214 215 217
3 151 149 178
3 269 270 271
3 148 150 167
3 221 224 230
3 150 151 152
3 140 162 273
3 177 153 268
3 150 149 151
3 157 155 264
3 148 149 150
3 212 213 214
3 212 210 213
3 179 192 193
3 265 177 266
3 185 272 285
3 265 266 267
3 148 147 149
3 271 119 302
3 123 281 320
3 144 146 166
3 146 147 148
3 148 167 282
3 209 210 212
3 246 244 257
3 146 145 147
3 181 176 183
3 146 148 282
3 209 208 210
3 135 136 137
3 140 142 162
3 285 272 292
3 166 146 282
3 144 145 146
3 191 182 211
3 145 143 173
3 137 138 139
3 172 157 264
3 144 143 145
3 142 143 144
3 119 271 306
3 144 166 283
3 142 141 143
3 280 310 313
3 207 208 209
3 162 142 283
3 140 141 142
3 170 171 182
3 140 138 141
3 171 179 279
3 207 206 208
3 135 134 136
3 142 144 283
3 139 138 140
3 216 106 324
3 205 207 226
3 205 204 206
3 139 140 273
3 169 139 273
3 205 206 207
3 190 174 262
3 191 211 228
3 179 193 279
3 137 136 138
3 132 117 255
3 223 218 303
3 232 304 311
3 203 184 204
3 203 204 205
3 231 200 232
3 263 164 285
3 183 184 202
3 202 184 203
3 182 171 279
3 185 182 191
3 170 182 185
3 138 136 286
3 265 267 300
3 136 134 187
3 264 265 291
3 234 235 290
3 58 59 122
3 28 29 123
3 30 31 106
3 60 61 107
3 172 291 314
3 267 266 302
3 231 232 233
3 263 285 292
3 136 187 286
3 141 138 286
3 32 33 120
3 62 63 121
3 183 176 184
3 197 195 198
3 225 200 231
3 308 260 309
3 286 260 308
3 197 198 199
3 57 58 284
3 199 200 225
3 204 184 289
3 306 271 312
3 164 170 285
3 119 17 295
3 18 112 295
3 169 273 289
3 134 132 287
3 199 198 200
3 204 289 293
3 173 278 310
3 288 161 304
3 150 152 296
3 195 190 288
3 289 273 293
3 170 185 285
3 132 255 287
3 176 169 289
3 26 27 128
3 56 57 129
3 220 223 297
3 163 263 292
3 187 134 287
3 184 176 289
3 190 262 288
3 152 154 299
3 269 271 302
3 304 161 311
3 198 195 288
3 16 119 306
3 110 15 306
3 206 293 294
3 203 205 307
3 206 204 293
3 172 264 291
3 273 162 293
3 163 292 297
3 58 122 284
3 272 222 292
3 280 147 310
3 293 162 294
3 159 172 311
3 173 143 308
3 259 275 309
3 145 173 310
3 310 278 313
3 292 222 297
3 232 200 304
3 296 223 303
3 141 286 308
3 297 223 299
3 129 57 284
3 17 18 295
3 167 150 296
3 162 283 294
3 208 206 294
3 210 298 301
3 210 208 298
3 218 215 303
3 266 269 302
3 303 215 305
3 215 213 305
3 222 220 297
3 219 221 315
3 213 210 301
3 40 41 316
3 298 166 301
3 283 166 298
3 213 301 305
3 294 283 298
3 154 163 299
3 166 282 301
3 167 303 305
3 208 294 298
3 198 288 304
3 291 265 300
3 282 167 305
3 301 282 305
3 107 249 323
3 15 16 306
3 200 198 304
3 205 226 307
3 24 25 317
3 54 55 318
3 260 259 309
3 242 34 325
3 277 110 312
3 143 141 308
3 163 297 299
3 278 277 313
3 147 145 310
3 277 312 313
3 235 291 300
3 167 296 303
3 161 159 311
3 271 270 312
3 312 270 313
3 270 280 313
3 233 232 314
3 34 35 325
3 311 172 314
3 221 230 315
3 41 109 316
3 28 123 320
3 250 107 327
3 232 311 314
3 281 123 334
3 65 0 328
3 0 6 328
3 128 27 320
3 123 29 321
3 30 106 321
3 124 24 317
3 125 54 318
3 126 245 328
3 251 250 319
3 64 245 326
3 122 59 323
3 60 107 323
3 27 28 320
3 106 31 324
3 188 239 322
3 32 120 324
3 120 236 332
3 284 122 322
3 34 242 333
3 197 281 334
3 246 121 326
3 201 188 322
3 29 30 321
3 107 61 327
3 62 121 327
3 33 34 333
3 55 3 330
3 25 1 329
3 1 26 329
3 3 56 330
3 236 192 332
3 236 120 333
3 192 216 332
3 322 122 335
3 242 236 333
3 63 64 326
3 201 322 335
3 59 60 323
3 36 127 336
3 324 120 332
3 121 63 326
3 31 32 324
3 245 246 326
3 123 321 334
3 317 25 329
3 318 55 330
3 2 36 336
3 6 126 328
3 128 317 329
3 129 318 330
3 61 62 327
3 281 227 331
3 249 201 335
3 122 323 335
3 127 325 336
3 35 2 336
3 321 196 334
3 216 324 332
3 26 128 329
3 56 129 330
3 128 320 331
3 196 197 334
3 120 33 333
3 320 281 331
3 323 249 335
3 325 35 336
3 337 425 427
3 488 417 550
3 425 337 447
3 470 356 549
3 74 75 476
3 360 470 549
3 469 356 470
3 460 424 472
3 417 482 550
3 476 75 559
3 470 360 515
3 472 473 556
3 479 338 481
3 411 482 483
3 50 51 538
3 358 472 556
3 346 433 434
3 49 50 457
3 477 488 550
3 338 479 480
3 457 50 538
3 344 438 440
3 424 467 472
3 414 433 469
3 350 443 445
3 43 44 546
3 52 53 468
3 39 40 459
3 347 442 460
3 341 448 450
3 344 49 457
3 347 39 459
3 442 347 459
3 419 414 469
3 438 344 457
3 482 417 483
3 42 43 461
3 433 346 468
3 461 43 546
3 339 42 461
3 337 427 552
3 455 339 461
3 420 425 447
3 423 420 447
3 47 48 484
3 443 350 484
3 411 479 482
3 492 422 547
3 456 355 458
3 344 440 484
3 458 355 548
3 45 46 485
3 448 341 485
3 350 445 485
3 416 492 503
3 53 356 468
3 339 455 492
3 346 52 468
3 458 548 562
3 51 346 538
3 471 460 472
3 424 460 510
3 355 456 474
3 37 38 471
3 345 462 464
3 481 352 550
3 346 434 538
3 460 442 510
3 345 464 465
3 433 468 469
3 352 481 558
3 462 345 474
3 419 469 470
3 422 459 547
3 350 47 484
3 48 344 484
3 44 341 546
3 341 45 485
3 46 350 485
3 358 37 471
3 416 422 492
3 92 93 474
3 38 347 471
3 492 455 503
3 459 40 547
3 341 450 546
3 479 481 482
3 470 515 553
3 456 462 474
3 90 91 465
3 440 443 484
3 445 448 485
3 91 345 465
3 347 460 471
3 472 467 473
3 93 355 474
3 345 92 474
3 522 466 545
3 339 492 547
3 90 465 521
3 364 417 488
3 418 489 491
3 465 464 466
3 468 356 469
3 478 432 480
3 418 491 517
3 526 498 533
3 352 477 550
3 89 90 521
3 487 489 518
3 548 359 562
3 358 471 472
3 498 343 531
3 391 392 493
3 417 366 483
3 412 432 478
3 349 526 533
3 357 361 475
3 357 475 476
3 489 418 518
3 527 383 530
3 466 464 545
3 357 77 361
3 493 392 519
3 362 364 488
3 361 362 475
3 343 521 531
3 366 368 483
3 476 475 477
3 506 509 540
3 81 340 487
3 406 412 478
3 486 80 487
3 412 419 432
3 487 340 489
3 396 391 493
3 76 77 357
3 36 37 358
3 342 537 543
3 411 478 479
3 361 348 362
3 479 478 480
3 411 406 478
3 399 406 411
3 79 80 486
3 475 362 488
3 410 405 420
3 78 348 361
3 410 420 423
3 80 81 487
3 389 390 391
3 391 390 392
3 93 94 355
3 53 54 356
3 364 366 417
3 402 405 410
3 509 404 540
3 420 421 425
3 402 396 405
3 406 407 412
3 399 400 406
3 425 426 427
3 77 78 361
3 389 388 390
3 395 391 396
3 368 399 483
3 497 499 500
3 368 370 399
3 38 39 347
3 78 79 348
3 362 363 364
3 91 92 345
3 51 52 346
3 387 388 389
3 420 405 421
3 430 458 512
3 389 395 494
3 412 414 419
3 404 539 540
3 343 498 526
3 495 408 496
3 343 89 521
3 425 421 426
3 389 391 395
3 387 389 494
3 386 408 495
3 362 348 363
3 401 396 402
3 486 487 518
3 506 508 509
3 442 413 510
3 399 411 483
3 348 79 486
3 399 370 400
3 489 490 491
3 424 423 467
3 489 340 490
3 428 430 512
3 364 365 366
3 390 388 403
3 497 408 499
3 406 400 407
3 506 507 508
3 387 386 388
3 385 386 387
3 405 396 493
3 395 396 401
3 84 342 507
3 83 84 507
3 454 527 530
3 385 384 386
3 507 342 508
3 452 451 453
3 394 387 494
3 490 505 506
3 452 453 455
3 430 456 458
3 427 426 428
3 380 378 511
3 383 384 385
3 382 409 499
3 505 83 507
3 451 449 454
3 409 380 511
3 499 409 500
3 386 384 408
3 340 82 505
3 450 449 451
3 384 382 499
3 82 83 505
3 490 340 505
3 448 446 449
3 86 87 349
3 46 47 350
3 88 89 343
3 48 49 344
3 84 85 342
3 44 45 341
3 41 42 339
3 81 82 340
3 385 387 394
3 521 466 531
3 450 451 452
3 383 382 384
3 448 449 450
3 506 505 507
3 500 409 501
3 364 363 365
3 455 453 503
3 501 409 511
3 445 444 446
3 445 446 448
3 382 380 409
3 500 501 502
3 379 381 398
3 452 455 461
3 381 382 383
3 371 393 504
3 408 384 499
3 381 380 382
3 388 386 495
3 379 380 381
3 443 444 445
3 443 441 444
3 410 423 424
3 496 408 497
3 416 503 516
3 496 497 498
3 379 378 380
3 502 349 533
3 354 512 551
3 375 377 397
3 377 378 379
3 379 398 513
3 440 441 443
3 477 475 488
3 377 376 378
3 412 407 414
3 377 379 513
3 440 439 441
3 366 367 368
3 371 373 393
3 516 503 523
3 397 377 513
3 375 376 377
3 422 413 442
3 376 374 404
3 368 369 370
3 403 388 495
3 375 374 376
3 373 374 375
3 349 502 537
3 375 397 514
3 373 372 374
3 511 541 544
3 438 439 440
3 393 373 514
3 371 372 373
3 401 402 413
3 371 369 372
3 402 410 510
3 438 437 439
3 366 365 367
3 373 375 514
3 370 369 371
3 447 337 555
3 436 438 457
3 436 435 437
3 370 371 504
3 400 370 504
3 436 437 438
3 421 405 493
3 422 442 459
3 410 424 510
3 368 367 369
3 363 348 486
3 454 449 534
3 463 535 542
3 434 415 435
3 434 435 436
3 462 431 463
3 494 395 516
3 414 415 433
3 433 415 434
3 413 402 510
3 416 413 422
3 401 413 416
3 369 367 517
3 496 498 531
3 367 365 418
3 495 496 522
3 465 466 521
3 68 69 353
3 98 99 354
3 100 101 337
3 70 71 338
3 403 522 545
3 498 497 533
3 462 463 464
3 494 516 523
3 367 418 517
3 372 369 517
3 102 103 351
3 72 73 352
3 414 407 415
3 428 426 429
3 456 431 462
3 539 491 540
3 517 491 539
3 428 429 430
3 67 68 515
3 430 431 456
3 435 415 520
3 537 502 543
3 395 401 516
3 349 87 526
3 88 343 526
3 400 504 520
3 365 363 518
3 430 429 431
3 435 520 524
3 404 509 541
3 519 392 535
3 381 383 527
3 426 421 519
3 520 504 524
3 401 416 516
3 363 486 518
3 407 400 520
3 96 97 359
3 66 67 360
3 451 454 528
3 394 494 523
3 418 365 518
3 415 407 520
3 421 493 519
3 383 385 530
3 500 502 533
3 535 392 542
3 429 426 519
3 86 349 537
3 342 85 537
3 437 524 525
3 434 436 538
3 437 435 524
3 403 495 522
3 504 393 524
3 394 523 528
3 68 353 515
3 503 453 523
3 511 378 541
3 524 393 525
3 390 403 542
3 404 374 539
3 490 506 540
3 376 404 541
3 541 509 544
3 523 453 528
3 463 431 535
3 527 454 534
3 372 517 539
3 528 454 530
3 360 67 515
3 87 88 526
3 398 381 527
3 393 514 525
3 439 437 525
3 441 529 532
3 441 439 529
3 449 446 534
3 497 500 533
3 534 446 536
3 446 444 536
3 453 451 528
3 450 452 546
3 444 441 532
3 40 41 547
3 529 397 532
3 514 397 529
3 444 532 536
3 525 514 529
3 385 394 530
3 397 513 532
3 398 534 536
3 439 525 529
3 429 519 535
3 522 496 531
3 513 398 536
3 532 513 536
3 338 480 554
3 85 86 537
3 431 429 535
3 436 457 538
3 94 95 548
3 54 55 549
3 491 490 540
3 473 104 556
3 508 342 543
3 374 372 539
3 394 528 530
3 509 508 544
3 378 376 541
3 508 543 544
3 466 522 531
3 398 527 534
3 392 390 542
3 502 501 543
3 543 501 544
3 501 511 544
3 464 463 545
3 104 105 556
3 542 403 545
3 452 461 546
3 41 339 547
3 98 354 551
3 481 338 558
3 463 542 545
3 512 354 565
3 75 4 559
3 4 76 559
3 359 97 551
3 354 99 552
3 100 337 552
3 355 94 548
3 356 54 549
3 357 476 559
3 482 481 550
3 74 476 557
3 353 69 554
3 70 338 554
3 97 98 551
3 337 101 555
3 419 470 553
3 102 351 555
3 351 467 563
3 515 353 553
3 104 473 564
3 428 512 565
3 477 352 557
3 432 419 553
3 99 100 552
3 338 71 558
3 72 352 558
3 103 104 564
3 55 3 561
3 95 5 560
3 5 96 560
3 3 66 561
3 467 423 563
3 467 351 564
3 423 447 563
3 553 353 566
3 473 467 564
3 73 74 557
3 432 553 566
3 69 70 554
3 36 358 567
3 555 351 563
3 352 73 557
3 101 102 555
3 476 477 557
3 354 552 565
3 548 95 560
3 549 55 561
3 2 36 567
3 76 357 559
3 359 548 560
3 360 549 561
3 71 72 558
3 512 458 562
3 480 432 566
3 353 554 566
3 358 556 567
3 105 2 567
3 552 427 565
3 447 555 563
3 96 359 560
3 66 360 561
3 359 551 562
3 427 428 565
3 351 103 564
3 551 512 562
3 554 480 566
3 556 105 567

CELL_TYPES 1048
5
5
5
5
5
5
5
5
5
5
5
5
5
5
5
5
5
5
5
5
5
5
5
5
5
5
5
5
5
5
5
5
5
5
5
5
5
5
5
5
5
5
5
5
5
5
5
5
5
5
5
5
5
5
5
5
5
5
5
5
5
5
5
5
5
5
5
5
5
5
5
5
5
5
5
5
5
5
5
5
5
5
5
5
5
5
5
5
5
5
5
5
5
5
5
5
5
5
5
5
5
5
5
5
5
5
5
5
5
5
5
5
5
5
5
5
5
5
5
5
5
5
5
5
5
5
5
5
5
5
5
5
5
5
5
5
5
5
5
5
5
5
5
5
5
5
5
5
5
5
5
5
5
5
5
5
5
5
5
5
5
5
5
5
5
5
5
5
5
5
5
5
5
5
5
5
5
5
5
5
5
5
5
5
5
5
5
5
5
5
5
5
5
5
5
5
5
5
5
5
5
5
5
5
5
5
5
5
5
5
5
5
5
5
5
5
5
5
5
5
5
5
5
5
5
5
5
5
5
5
5
5
5
5
5
5
5
5
5
5
5
5
5
5
5
5
5
5
5
5
5
5
5
5
5
5
5
5
5
5
5
5
5
5
5
5
5
5
5
5
5
5
5
5
5
5
5
5
5
5
5
5
5
5
5
5
5
5
5
5
5
5
5
5
5
5
5
5
5
5
5
5
5
5
5
5
5
5
5
5
5
5
5
5
5
5
5
5
5
5
5
5
5
5
5
5
5
5
5
5
5
5
5
5
5
5
5
5
5
5
5
5
5
5
5
5
5
5
5
5
5
5
5
5
5
5
5
5
5
5
5
5
5
5
5
5
5
5
5
5
5
5
5
5
5
5
5
5
5
5
5
5
5
5
5
5
5
5
5
5
5
5
5
5
5
5
5
5
5
5
5
5
5
5
5
5
5
5
5
5
5
5
5
5
5
5
5
5
5
5
5
5
5
5
5
5
5
5
5
5
5
5
5
5
5
5
5
5
5
5
5
5
5
5
5
5
5
5
5
5
5
5
5
5
5
5
5
5
5
5
5
5
5
5
5
5
5
5
5
5
5
5
5
5
5
5
5
5
5
5
5
5
5
5
5
5
5
5
5
5
5
5
5
5
5
5
5
5
5
5
5
5
5
5
5
5
5
5
5
5
5
5
5
5
5
5
5
5
5
5
5
5
5
5
5
5
5
5
5
5
5
5
5
5
5
5
5
5
5
5
5
5
5
5
5
5
5
5
5
5
5
5
5
5
5
5
5
5
5
5
5
5
5
5
5
5
5
5
5
5
5
5
5
5
5
5
5
5
5
5
5
5
5
5
5
5
5
5
5
5
5
5
5
5
5
5
5
5
5
5
5
5
5
5
5
5
5
5
5
5
5
5
5
5
5
5
5
5
5
5
5
5
5
5
5
5
5
5
5
5
5
5
5
5
5
5
5
5
5
5
5
5
5
5
5
5
5
5
5
5
5
5
5
5
5
5
5
5
5
5
5
5
5
5
5
5
5
5
5
5
5
5
5
5
5
5
5
5
5
5
5
5
5
5
5
5
5
5
5
5
5
5
5
5
5
5
5
5
5
5
5
5
5
5
5
5
5
5
5
5
5
5
5
5
5
5
5
5
5
5
5
5
5
5
5
5
5
5
5
5
5
5
5
5
5
5
5
5
5
5
5
5
5
5
5
5
5
5
5
5
5
5
5
5
5
5
5
5
5
5
5
5
5
5
5
5
5
5
5
5
5
5
5
5
5
5
5
5
5
5
5
5
5
5
5
5
5
5
5
5
5
5
5
5
5
5
5
5
5
5
5
5
5
5
5
5
5
5
5
5
5
5
5
5
5
5
5
5
5
5
5
5
5
5
5
5
5
5
5
5
5
5
5
5
5
5
5
5
5
5
5
5
5
5
5
5
5
5
5
5
5
5
5
5
5
5
5
5
5
5
5
5
5
5
5
5
5
5
5
5
5
5
5
5
5
5
5
5
5
5
5
5
5
5
5
5
5
5
5
5
5
5
5
5
5
5
5
5
5
5
5
5
5
5
5
5
5
5
5
5
5
5
5
5
5
5
5
5
5
5
5
5
5
5
5
5
5
5
5
5
5
5
5
5
5
5
5
5
5
5
5
5
5
5
5
5
5
5
5
5
5
5
5
5
5
5
5
5
5
5
5
5
5
5
5
5
5
5
5
5
5
5
5
5
5
5
5
5
5
5
5
5
5
5
5
5
5
5
5
5
5
5
5
5
5
5
5
5
5
5
5
5
5
5
5
5
5
5
5
5
5
5
5
5
5
5
5
5
5
5
5
5
5
5
5
5
5
5
5
5
5
5
5
5
5
5
5
5
5
5
5
5
5
5
5
5
5
5

CELL_DATA 1048
SCALARS CellEntityIds int 1
LOOKUP_TABLE default
1
1
1
1
1
1
1
1
1
1
1
1
1
1
1
1
1
1
1
1
1
1
1
1
1
1
1
1
1
1
1
1
1
1
1
1
1
1
1
1
1
1
1
1
1
1
1
1
1
1
1
1
1
1
1
1
1
1
1
1
1
1
1
1
1
1
1
1
1
1
1
1
1
1
1
1
1
1
1
1
1
1
1
1
1
1
1
1
1
1
1
1
1
1
1
1
1
1
1
1
1
1
1
1
1
1
1
1
1
1
1
1
1
1
1
1
1
1
1
1
1
1
1
1
1
1
1
1
1
1
1
1
1
1
1
1
1
1
1
1
1
1
1
1
1
1
1
1
1
1
1
1
1
1
1
1
1
1
1
1
1
1
1
1
1
1
1
1
1
1
1
1
1
1
1
1
1
1
1
1
1
1
1
1
1
1
1
1
1
1
1
1
1
1
1
1
1
1
1
1
1
1
1
1
1
1
1
1
1
1
1
1
1
1
1
1
1
1
1
1
1
1
1
1
1
1
1
1
1
1
1
1
1
1
1
1
1
1
1
1
1
1
1
1
1
1
1
1
1
1
1
1
1
1
1
1
1
1
1
1
1
1
1
1
1
1
1
1
1
1
1
1
1
1
1
1
1
1
1
1
1
1
1
1
1
1
1
1
1
1
1
1
1
1
1
1
1
1
1
1
1
1
1
1
1
1
1
1
1
1
1
1
1
1
1
1
1
1
1
1
1
1
1
1
1
1
1
1
1
1
1
1
1
1
1
1
1
1
1
1
1
1
1
1
1
1
1
1
1
1
1
1
1
1
1
1
1
1
1
1
1
1
1
1
1
1
1
1
1
1
1
1
1
1
1
1
1
1
1
1
1
1
1
1
1
1
1
1
1
1
1
1
1
1
1
1
1
1
1
1
1
1
1
1
1
1
1
1
1
1
1
1
1
1
1
1
1
1
1
1
1
1
1
1
1
1
1
1
1
1
1
1
1
1
1
1
1
1
1
1
1
1
1
1
1
1
1
1
1
1
1
1
1
1
1
1
1
1
1
1
1
1
1
1
1
1
1
1
1
1
1
1
1
1
1
1
1
1
1
1
1
1
1
1
1
1
1
1
1
1
1
1
1
1
1
1
1
1
1
1
1
1
1
1
1
1
1
1
1
1
1
1
1
1
1
1
1
1
1
1
1
1
1
1
2
2
2
2
2
2
2
2
2
2
2
2
2
2
2
2
2
2
2
2
2
2
2
2
2
2
2
2
2
2
2
2
2
2
2
2
2
2
2
2
2
2
2
2
2
2
2
2
2
2
2
2
2
2
2
2
2
2
2
2
2
2
2
2
2
2
2
2
2
2
2
2
2
2
2
2
2
2
2
2
2
2
2
2
2
2
2
2
2
2
2
2
2
2
2
2
2
2
2
2
2
2
2
2
2
2
2
2
2
2
2
2
2
2
2
2
2
2
2
2
2
2
2
2
2
2
2
2
2
2
2
2
2
2
2
2
2
2
2
2
2
2
2
2
2
2
2
2
2
2
2
2
2
2
2
2
2
2
2
2
2
2
2
2
2
2
2
2
2
2
2
2
2
2
2
2
2
2
2
2
2
2
2
2
2
2
2
2
2
2
2
2
2
2
2
2
2
2
2
2
2
2
2
2
2
2
2
2
2
2
2
2
2
2
2
2
2
2
2
2
2
2
2
2
2
2
2
2
2
2
2
2
2
2
2
2
2
2
2
2
2
2
2
2
2
2
2
2
2
2
2
2
2
2
2
2
2
2
2
2
2
2
2
2
2
2
2
2
2
2
2
2
2
2
2
2
2
2
2
2
2
2
2
2
2
2
2
2
2
2
2
2
2
2
2
2
2
2
2
2
2
2
2
2
2
2
2
2
2
2
2
2
2
2
2
2
2
2
2
2
2
2
2
2
2
2
2
2
2
2
2
2
2
2
2
2
2
2
2
2
2
2
2
2
2
2
2
2
2
2
2
2
2
2
2
2
2
2
2
2
2
2
2
2
2
2
2
2
2
2
2
2
2
2
2
2
2
2
2
2
2
2
2
2
2
2
2
2
2
2
2
2
2
2
2
2
2
2
2
2
2
2
2
2
2
2
2
2
2
2
2
2
2
2
2
2
2
2
2
2
2
2
2
2
2
2
2
2
2
2
2
2
2
2
2
2
2
2
2
2
2
2
2
2
2
2
2
2
2
2
2
2
2
2
2
2
2
2
2
2
2
2
2
2
2
2
2
2
2
2
2
2
2
2
2
2
2
2
2
2
2
2
2
2
2
2
2
2
2
2
2
2
2
2
2
2
2
2
2
2
2
2
2
2
2
2
2
2
2
2
2
2
2
2
2
2
2
2
2
2
2
2
2
2
