# vtk DataFile Version 2.0
academic_pulse, Created by Gmsh 4.11.1 
ASCII
DATASET UNSTRUCTURED_GRID
POINTS 149 double
-1 -1 0
1 -1 0
1 0 0
-1 0 0
-1 1 0
1 1 0
-0.8000000000005548 -1 0
-0.6000000000011094 -1 0
-0.4000000000016646 -1 0
-0.2000000000022197 -1 0
-2.753131056465463e-12 -1 0
0.19999999999778 -1 0
0.399999999998335 -1 0
0.5999999999988901 -1 0
0.7999999999994449 -1 0
1 -0.7999999999999996 0
1 -0.6000000000013874 0
1 -0.400000000001665 0
1 -0.2000000000008325 0
0.8000000000005548 0 0
0.6000000000011094 0 0
0.4000000000016646 0 0
0.2000000000022197 0 0
2.753131056465463e-12 0 0
-0.19999999999778 0 0
-0.399999999998335 0 0
-0.5999999999988901 0 0
-0.7999999999994449 0 0
-1 -0.1999999999995579 0
-1 -0.3999999999989746 0
-1 -0.5999999999989463 0
-1 -0.799999999999473 0
-1 0.1999999999995579 0
-1 0.3999999999989746 0
-1 0.5999999999989463 0
-1 0.799999999999473 0
-0.8000000000005548 1 0
-0.6000000000011094 1 0
-0.4000000000016646 1 0
-0.2000000000022197 1 0
-2.753131056465463e-12 1 0
0.19999999999778 1 0
0.399999999998335 1 0
0.5999999999988901 1 0
0.7999999999994449 1 0
1 0.7999999999999996 0
1 0.6000000000013874 0
1 0.400000000001665 0
1 0.2000000000008325 0
-0.2973387220165449 -0.8316006158498417 0
0.3000000000019422 -0.1732050807564069 0
0.09999999999767006 -0.8267949192430482 0
-0.1026612779831613 -0.1683993841504703 0
0.499999999998584 -0.8267949192425457 0
-0.4999999999985332 -0.1732050807573235 0
0.8372448438202684 -0.4903320945064831 0
-0.8372448438201167 -0.5096679054938766 0
0.6861149077330843 -0.1919020546235315 0
-0.6861149077331019 -0.8080979453766336 0
0.2999999999980242 -0.8267949192428996 0
0.1999999999976843 -0.6535898384861395 0
0.002661277982972461 -0.6551263280475711 0
0.09999999999731596 -0.4803847577295642 0
-0.09968318119311598 -0.4922434126002957 0
0.2999999999971311 -0.4803847577292678 0
-0.3031048243144205 -0.1708676417615467 0
-0.4031787487031117 -0.3444840987872517 0
-0.6042310541433258 -0.3297400588881908 0
-0.5162738843939786 -0.5158965987669863 0
-0.302278073129561 -0.5086792586149345 0
-0.6995782245484776 -0.1697313735239577 0
0.3999999999977977 -0.6535898384855372 0
0.5152153411295639 -0.4814468061825139 0
0.6062371528812075 -0.67011593873274 0
0.699665258542186 -0.8302623789749534 0
-0.09645162935516696 -0.8293884398323739 0
0.09983835775338451 -0.1705303855946196 0
-0.4885677764393731 -0.8331879866135781 0
0.4890113227702936 -0.1676129628207351 0
0.8409589541423421 -0.3047933512168021 0
-0.8409589541423583 -0.6952066487835753 0
-0.8120563121732239 -0.3162389612913977 0
0.8123553311350206 -0.6837395744400729 0
0.6862062166539189 -0.3873544665353682 0
-0.6863826405311466 -0.6122027676230801 0
-0.1946152291344505 -0.6644028806848392 0
-0.2058605367030865 -0.3358009110843907 0
-0.3911711189993436 -0.6733319363711031 0
0.2000000000024451 -0.3267949192412712 0
-0.00139443968770304 -0.329025628400102 0
0.3920299487972788 -0.3238700415056334 0
0.8535898384855253 -0.8535898384856742 0
-0.8535898384854774 -0.1464101615142553 0
-0.8535898384868144 -0.8535898384865247 0
0.8535898384868663 -0.1464101615135054 0
0.549453059737808 -0.3129066948228558 0
-0.5479530288821539 -0.6862242776964387 0
-0.6912377470123583 -0.4567492584127063 0
0.6897502242159582 -0.5418767703792732 0
0.2973387220165469 0.1683993841501617 0
-0.3000000000019422 0.8267949192435931 -0
-0.09999999999767001 0.1732050807569518 -0
0.1026612779831613 0.8316006158495297 0
-0.4999999999985866 0.1732050807574513 -0
0.4999999999985291 0.8267949192426741 0
0.8372448438202935 0.4903320945066362 0
-0.8372448438200909 0.5096679054940283 -0
0.6861149077331978 0.1919020546235596 0
-0.6861149077329882 0.8080979453766616 -0
-0.2999999999980247 0.1732050807571 -0
-0.1999999999976843 0.3464101615138604 -0
-0.002661277982970324 0.3448736719524297 -0
-0.0999999999973156 0.5196152422704358 -0
0.09968318119312042 0.5077565873997065 0
-0.2999999999971307 0.5196152422707324 -0
0.3031048243144198 0.8291323582384529 0
0.4031787487031144 0.6555159012127545 0
0.6042310541434517 0.6702599411119794 0
0.5162738843941831 0.4841034012332832 0
0.3022780731295938 0.4913207413851047 0
0.6995782245484741 0.8302686264760518 0
-0.3999999999978053 0.3464101615144602 -0
-0.515215341129387 0.5185531938177239 -0
-0.606237152881053 0.3298840612674559 -0
-0.6996652585421886 0.1697376210250285 -0
0.09645162935516967 0.1706115601676279 0
-0.09983835775338458 0.8294696144053803 -0
0.4885677764394463 0.166812013386494 0
-0.4890113227702207 0.832387037179334 -0
0.8409589541424648 0.3047933512168353 0
-0.8409589541422355 0.6952066487836082 -0
0.8120563121733647 0.683761038708774 0
-0.8123553311348765 0.3162604255600983 -0
-0.6862062166536653 0.6126455334650029 -0
0.686382640531405 0.3877972323772961 0
0.1946152291344592 0.3355971193151699 0
0.2058605367030911 0.6641990889156149 0
0.3911711189994539 0.3266680636289996 0
-0.2000000000024452 0.6732050807587292 -0
0.001394439687704562 0.6709743715998993 0
-0.3920299487971803 0.6761299584944549 -0
0.8535898384855372 0.8535898384856861 0
-0.8535898384854694 0.146410161514263 -0
-0.8535898384868144 0.8535898384865247 -0
0.8535898384868663 0.1464101615135054 0
0.5479530288824941 0.3137757223037843 0
-0.5494530597375193 0.6870933051773584 -0
0.6912377470125395 0.5432507415875938 0
-0.6897502242153347 0.4581232296213796 -0

CELLS 256 1024
3 73 74 82
3 67 70 81
3 79 57 83
3 80 58 84
3 73 82 98
3 67 81 97
3 83 57 95
3 84 58 96
3 52 86 89
3 49 85 87
3 13 14 74
3 53 13 74
3 64 60 71
3 60 59 71
3 73 53 74
3 51 59 60
3 10 11 51
3 51 11 59
3 10 51 75
3 71 53 73
3 23 24 52
3 9 10 75
3 12 53 59
3 64 71 72
3 11 12 59
3 26 27 70
3 51 60 61
3 49 9 75
3 59 53 71
3 65 54 66
3 22 23 76
3 52 24 65
3 66 67 68
3 25 54 65
3 66 68 69
3 24 25 65
3 66 54 67
3 25 26 54
3 12 13 53
3 50 22 76
3 51 61 75
3 16 17 55
3 54 26 70
3 23 52 76
3 29 30 56
3 62 60 64
3 61 60 62
3 67 54 70
3 72 71 73
3 19 20 57
3 20 21 78
3 21 22 50
3 8 9 49
3 61 62 63
3 7 8 77
3 6 7 58
3 57 20 78
3 21 50 78
3 8 49 77
3 58 7 77
3 17 18 79
3 30 31 80
3 28 29 81
3 15 16 82
3 69 63 86
3 63 69 85
3 86 63 89
3 85 69 87
3 52 65 86
3 49 75 85
3 66 69 86
3 61 63 85
3 55 17 79
3 56 30 80
3 29 56 81
3 16 55 82
3 1 15 91
3 3 28 92
3 14 1 91
3 27 3 92
3 31 0 93
3 18 2 94
3 0 6 93
3 2 19 94
3 75 61 85
3 65 66 86
3 57 78 95
3 58 77 96
3 62 88 89
3 62 64 88
3 64 72 90
3 63 62 89
3 88 64 90
3 69 68 87
3 77 49 87
3 88 76 89
3 50 76 88
3 78 50 90
3 76 52 89
3 50 88 90
3 55 79 83
3 56 80 84
3 72 73 98
3 68 67 97
3 81 56 97
3 82 55 98
3 83 72 98
3 84 68 97
3 80 31 93
3 79 18 94
3 15 82 91
3 28 81 92
3 74 14 91
3 70 27 92
3 6 58 93
3 19 57 94
3 57 79 94
3 58 80 93
3 81 70 92
3 82 74 91
3 72 83 95
3 68 84 96
3 87 68 96
3 90 72 95
3 55 83 98
3 56 84 97
3 77 87 96
3 78 90 95
3 123 124 132
3 117 120 131
3 129 107 134
3 130 108 133
3 123 132 148
3 117 131 147
3 134 107 145
3 133 108 146
3 102 136 139
3 99 135 137
3 26 27 124
3 103 26 124
3 114 110 121
3 110 109 121
3 101 109 110
3 123 103 124
3 23 24 101
3 101 24 109
3 23 101 125
3 121 103 123
3 40 41 102
3 22 23 125
3 25 103 109
3 43 44 120
3 114 121 122
3 24 25 109
3 101 110 111
3 99 22 125
3 109 103 121
3 115 104 116
3 116 117 118
3 39 40 126
3 102 41 115
3 42 104 115
3 116 118 119
3 116 104 117
3 41 42 115
3 25 26 103
3 42 43 104
3 100 39 126
3 101 111 125
3 46 47 105
3 104 43 120
3 40 102 126
3 33 34 106
3 112 110 114
3 117 104 120
3 111 110 112
3 19 20 107
3 20 21 127
3 122 121 123
3 21 22 99
3 38 39 100
3 111 112 113
3 37 38 128
3 36 37 108
3 107 20 127
3 21 99 127
3 38 100 128
3 108 37 128
3 47 48 129
3 34 35 130
3 45 46 131
3 32 33 132
3 119 113 136
3 113 119 135
3 136 113 139
3 135 119 137
3 102 115 136
3 99 125 135
3 116 119 136
3 111 113 135
3 105 47 129
3 46 105 131
3 106 34 130
3 33 106 132
3 5 45 141
3 3 32 142
3 27 3 142
3 44 5 141
3 35 4 143
3 48 2 144
3 4 36 143
3 2 19 144
3 125 111 135
3 115 116 136
3 107 127 145
3 108 128 146
3 112 138 139
3 112 114 138
3 114 122 140
3 113 112 139
3 138 114 140
3 119 118 137
3 127 99 137
3 138 126 139
3 100 126 138
3 128 100 140
3 126 102 139
3 100 138 140
3 106 130 133
3 105 129 134
3 122 123 148
3 118 117 147
3 131 105 147
3 132 106 148
3 133 122 148
3 134 118 147
3 130 35 143
3 129 48 144
3 32 132 142
3 45 131 141
3 124 27 142
3 120 44 141
3 36 108 143
3 19 107 144
3 107 129 144
3 108 130 143
3 131 120 141
3 132 124 142
3 122 133 146
3 118 134 145
3 137 118 145
3 140 122 146
3 106 133 148
3 105 134 147
3 127 137 145
3 128 140 146

CELL_TYPES 256
5
5
5
5
5
5
5
5
5
5
5
5
5
5
5
5
5
5
5
5
5
5
5
5
5
5
5
5
5
5
5
5
5
5
5
5
5
5
5
5
5
5
5
5
5
5
5
5
5
5
5
5
5
5
5
5
5
5
5
5
5
5
5
5
5
5
5
5
5
5
5
5
5
5
5
5
5
5
5
5
5
5
5
5
5
5
5
5
5
5
5
5
5
5
5
5
5
5
5
5
5
5
5
5
5
5
5
5
5
5
5
5
5
5
5
5
5
5
5
5
5
5
5
5
5
5
5
5
5
5
5
5
5
5
5
5
5
5
5
5
5
5
5
5
5
5
5
5
5
5
5
5
5
5
5
5
5
5
5
5
5
5
5
5
5
5
5
5
5
5
5
5
5
5
5
5
5
5
5
5
5
5
5
5
5
5
5
5
5
5
5
5
5
5
5
5
5
5
5
5
5
5
5
5
5
5
5
5
5
5
5
5
5
5
5
5
5
5
5
5
5
5
5
5
5
5
5
5
5
5
5
5
5
5
5
5
5
5
5
5
5
5
5
5
5
5
5
5
5
5
5
5
5
5
5
5

CELL_DATA 256
SCALARS CellEntityIds int 1
LOOKUP_TABLE default
1
1
1
1
1
1
1
1
1
1
1
1
1
1
1
1
1
1
1
1
1
1
1
1
1
1
1
1
1
1
1
1
1
1
1
1
1
1
1
1
1
1
1
1
1
1
1
1
1
1
1
1
1
1
1
1
1
1
1
1
1
1
1
1
1
1
1
1
1
1
1
1
1
1
1
1
1
1
1
1
1
1
1
1
1
1
1
1
1
1
1
1
1
1
1
1
1
1
1
1
1
1
1
1
1
1
1
1
1
1
1
1
1
1
1
1
1
1
1
1
1
1
1
1
1
1
1
1
2
2
2
2
2
2
2
2
2
2
2
2
2
2
2
2
2
2
2
2
2
2
2
2
2
2
2
2
2
2
2
2
2
2
2
2
2
2
2
2
2
2
2
2
2
2
2
2
2
2
2
2
2
2
2
2
2
2
2
2
2
2
2
2
2
2
2
2
2
2
2
2
2
2
2
2
2
2
2
2
2
2
2
2
2
2
2
2
2
2
2
2
2
2
2
2
2
2
2
2
2
2
2
2
2
2
2
2
2
2
2
2
2
2
2
2
2
2
2
2
2
2
2
2
2
2
2
2
